{
.appVersion = "3151";
.formatVersion = 3;
DisplayStrings = (
ABCDEFGHIJKLMNOPQRSTUVWXYZ,
A,
ABCDEFGHIJKLMNOPQRSTUVWXYZ0123456789
);
axes = (
{
name = Bashfulness;
tag = BASH;
}
);
date = "2023-01-13 14:40:39 +0000";
familyName = "GD Bashful";
fontMaster = (
{
axesValues = (
0
);
customParameters = (
{
name = "Master Icon Glyph Name";
value = A;
}
);
id = "8858DC02-546C-4175-AC98-5F30292A292C";
metricValues = (
{
over = 16;
pos = 800;
},
{
over = 16;
pos = 700;
},
{
over = 16;
pos = 500;
},
{
over = -16;
},
{
over = -16;
pos = -200;
},
{
over = -16;
}
);
name = Regular;
},
{
axesValues = (
100
);
customParameters = (
{
name = "Master Icon Glyph Name";
value = A;
}
);
id = m01;
metricValues = (
{
over = 16;
pos = 800;
},
{
over = 16;
pos = 700;
},
{
over = 16;
pos = 500;
},
{
over = -16;
},
{
over = -16;
pos = -200;
},
{
over = -16;
}
);
name = Bashful;
}
);
glyphs = (
{
glyphname = A;
lastChange = "2023-01-20 17:18:52 +0000";
layers = (
{
layerId = m01;
shapes = (
{
closed = 1;
nodes = (
(240,-1,l),
(240,-1,o),
(279,0,o),
(327,0,c),
(375,0,o),
(414,-1,o),
(414,-1,c),
(632,-1,l),
(632,699,l),
(22,699,l),
(22,-1,l)
);
},
{
closed = 1;
nodes = (
(279,392,o),
(327,344,o),
(327,392,c),
(327,441,o),
(279,392,o),
(327,392,c),
(375,392,o),
(327,441,o),
(327,392,c),
(327,344,o),
(375,392,o),
(327,392,c)
);
}
);
width = 654;
},
{
layerId = "8858DC02-546C-4175-AC98-5F30292A292C";
shapes = (
{
closed = 1;
nodes = (
(240,-1,l),
(240,47,o),
(279,86,o),
(327,86,c),
(375,86,o),
(414,47,o),
(414,-1,c),
(632,-1,l),
(632,699,l),
(22,699,l),
(22,-1,l)
);
},
{
closed = 1;
nodes = (
(279,305,o),
(240,344,o),
(240,392,c),
(240,441,o),
(279,480,o),
(327,480,c),
(375,480,o),
(414,441,o),
(414,392,c),
(414,344,o),
(375,305,o),
(327,305,c)
);
}
);
width = 654;
}
);
unicode = (65,97);
},
{
glyphname = B;
lastChange = "2023-01-20 17:18:52 +0000";
layers = (
{
layerId = m01;
shapes = (
{
closed = 1;
nodes = (
(279,481,o),
(327,433,o),
(327,481,c),
(327,530,o),
(279,481,o),
(327,481,c),
(375,481,o),
(327,530,o),
(327,481,c),
(327,433,o),
(375,481,o),
(327,481,c)
);
},
{
closed = 1;
nodes = (
(279,263,o),
(327,214,o),
(327,263,c),
(327,311,o),
(279,263,o),
(327,263,c),
(375,263,o),
(327,311,o),
(327,263,c),
(327,214,o),
(375,263,o),
(327,263,c)
);
},
{
closed = 1;
nodes = (
(632,700,l),
(22,700,l),
(22,0,l),
(632,0,l),
(632,306,l),
(632,306,o),
(632,345,o),
(632,394,c),
(632,442,o),
(632,481,o),
(632,481,c)
);
}
);
width = 654;
},
{
layerId = "8858DC02-546C-4175-AC98-5F30292A292C";
shapes = (
{
closed = 1;
nodes = (
(279,394,o),
(240,433,o),
(240,481,c),
(240,530,o),
(279,569,o),
(327,569,c),
(375,569,o),
(414,530,o),
(414,481,c),
(414,433,o),
(375,394,o),
(327,394,c)
);
},
{
closed = 1;
nodes = (
(279,175,o),
(240,214,o),
(240,263,c),
(240,311,o),
(279,350,o),
(327,350,c),
(375,350,o),
(414,311,o),
(414,263,c),
(414,214,o),
(375,175,o),
(327,175,c)
);
},
{
closed = 1;
nodes = (
(632,700,l),
(22,700,l),
(22,0,l),
(632,0,l),
(632,306,l),
(584,306,o),
(545,345,o),
(545,394,c),
(545,442,o),
(584,481,o),
(632,481,c)
);
}
);
width = 654;
}
);
unicode = (66,98);
},
{
glyphname = C;
lastChange = "2023-01-20 17:18:52 +0000";
layers = (
{
layerId = m01;
shapes = (
{
closed = 1;
nodes = (
(632,345,o),
(632,306,o),
(632,306,c),
(632,0,l),
(22,0,l),
(22,700,l),
(632,700,l),
(632,481,l),
(632,481,o),
(632,442,o),
(632,394,c)
);
}
);
width = 654;
},
{
layerId = "8858DC02-546C-4175-AC98-5F30292A292C";
shapes = (
{
closed = 1;
nodes = (
(545,345,o),
(584,306,o),
(632,306,c),
(632,0,l),
(22,0,l),
(22,700,l),
(632,700,l),
(632,481,l),
(584,481,o),
(545,442,o),
(545,394,c)
);
}
);
width = 654;
}
);
unicode = (67,99);
},
{
glyphname = D;
lastChange = "2023-01-20 17:18:52 +0000";
layers = (
{
layerId = m01;
shapes = (
{
closed = 1;
nodes = (
(279,394,o),
(327,345,o),
(327,394,c),
(327,442,o),
(279,394,o),
(327,394,c),
(375,394,o),
(327,442,o),
(327,394,c),
(327,345,o),
(375,394,o),
(327,394,c)
);
},
{
closed = 1;
nodes = (
(22,700,l),
(22,0,l),
(632,0,l),
(632,48,o),
(584,0,o),
(632,0,c),
(632,700,l),
(584,700,o),
(632,652,o),
(632,700,c)
);
}
);
width = 654;
},
{
layerId = "8858DC02-546C-4175-AC98-5F30292A292C";
shapes = (
{
closed = 1;
nodes = (
(279,306,o),
(240,345,o),
(240,394,c),
(240,442,o),
(279,481,o),
(327,481,c),
(375,481,o),
(414,442,o),
(414,394,c),
(414,345,o),
(375,306,o),
(327,306,c)
);
},
{
closed = 1;
nodes = (
(22,700,l),
(22,0,l),
(545,0,l),
(545,48,o),
(584,88,o),
(632,88,c),
(632,613,l),
(584,613,o),
(545,652,o),
(545,700,c)
);
}
);
width = 654;
}
);
unicode = (68,100);
},
{
glyphname = E;
lastChange = "2023-01-20 17:18:52 +0000";
layers = (
{
layerId = m01;
shapes = (
{
closed = 1;
nodes = (
(632,345,o),
(632,306,o),
(632,306,c),
(632,263,l),
(632,263,o),
(632,223,o),
(632,175,c),
(632,127,o),
(632,88,o),
(632,88,c),
(632,0,l),
(22,0,l),
(22,700,l),
(632,700,l),
(632,481,l),
(632,481,o),
(632,442,o),
(632,394,c)
);
}
);
width = 654;
},
{
layerId = "8858DC02-546C-4175-AC98-5F30292A292C";
shapes = (
{
closed = 1;
nodes = (
(545,345,o),
(584,306,o),
(632,306,c),
(632,263,l),
(584,263,o),
(545,223,o),
(545,175,c),
(545,127,o),
(584,88,o),
(632,88,c),
(632,0,l),
(22,0,l),
(22,700,l),
(632,700,l),
(632,481,l),
(584,481,o),
(545,442,o),
(545,394,c)
);
}
);
width = 654;
}
);
unicode = (69,101);
},
{
glyphname = F;
lastChange = "2023-01-20 17:18:52 +0000";
layers = (
{
layerId = m01;
shapes = (
{
closed = 1;
nodes = (
(632,0,l),
(632,131,l),
(632,180,o),
(632,219,o),
(632,219,c),
(632,306,l),
(632,306,o),
(632,345,o),
(632,394,c),
(632,442,o),
(632,481,o),
(632,481,c),
(632,700,l),
(22,700,l),
(22,0,l)
);
}
);
width = 654;
},
{
layerId = "8858DC02-546C-4175-AC98-5F30292A292C";
shapes = (
{
closed = 1;
nodes = (
(545,0,l),
(545,131,l),
(545,180,o),
(584,219,o),
(632,219,c),
(632,306,l),
(584,306,o),
(545,345,o),
(545,394,c),
(545,442,o),
(584,481,o),
(632,481,c),
(632,700,l),
(22,700,l),
(22,0,l)
);
}
);
width = 654;
}
);
unicode = (70,102);
},
{
glyphname = G;
lastChange = "2023-01-20 17:18:52 +0000";
layers = (
{
layerId = m01;
shapes = (
{
closed = 1;
nodes = (
(632,345,o),
(632,306,o),
(632,306,c),
(632,0,l),
(545,0,l),
(545,0,o),
(506,0,o),
(458,0,c),
(410,0,o),
(371,0,o),
(371,0,c),
(22,0,l),
(22,700,l),
(632,700,l),
(632,481,l),
(632,481,o),
(632,442,o),
(632,394,c)
);
}
);
width = 654;
},
{
layerId = "8858DC02-546C-4175-AC98-5F30292A292C";
shapes = (
{
closed = 1;
nodes = (
(545,345,o),
(584,306,o),
(632,306,c),
(632,0,l),
(545,0,l),
(545,48,o),
(506,88,o),
(458,88,c),
(410,88,o),
(371,48,o),
(371,0,c),
(22,0,l),
(22,700,l),
(632,700,l),
(632,481,l),
(584,481,o),
(545,442,o),
(545,394,c)
);
}
);
width = 654;
}
);
unicode = (71,103);
},
{
glyphname = H;
lastChange = "2023-01-20 17:18:52 +0000";
layers = (
{
layerId = m01;
shapes = (
{
closed = 1;
nodes = (
(632,700,l),
(632,0,l),
(414,0,l),
(414,0,o),
(375,0,o),
(327,0,c),
(279,0,o),
(240,0,o),
(240,0,c),
(22,0,l),
(22,700,l),
(240,700,l),
(240,700,o),
(279,700,o),
(327,700,c),
(375,700,o),
(414,700,o),
(414,700,c)
);
}
);
width = 654;
},
{
layerId = "8858DC02-546C-4175-AC98-5F30292A292C";
shapes = (
{
closed = 1;
nodes = (
(632,700,l),
(632,0,l),
(414,0,l),
(414,48,o),
(375,88,o),
(327,88,c),
(279,88,o),
(240,48,o),
(240,0,c),
(22,0,l),
(22,700,l),
(240,700,l),
(240,652,o),
(279,613,o),
(327,613,c),
(375,613,o),
(414,652,o),
(414,700,c)
);
}
);
width = 654;
}
);
unicode = (72,104);
},
{
glyphname = I;
lastChange = "2023-01-20 17:18:52 +0000";
layers = (
{
layerId = m01;
shapes = (
{
closed = 1;
nodes = (
(632,0,l),
(22,0,l),
(22,306,l),
(22,306,o),
(22,345,o),
(22,394,c),
(22,442,o),
(22,481,o),
(22,481,c),
(22,700,l),
(632,700,l),
(632,481,l),
(632,481,o),
(632,442,o),
(632,394,c),
(632,345,o),
(632,306,o),
(632,306,c)
);
}
);
width = 654;
},
{
layerId = "8858DC02-546C-4175-AC98-5F30292A292C";
shapes = (
{
closed = 1;
nodes = (
(632,0,l),
(22,0,l),
(22,306,l),
(70,306,o),
(109,345,o),
(109,394,c),
(109,442,o),
(70,481,o),
(22,481,c),
(22,700,l),
(632,700,l),
(632,481,l),
(584,481,o),
(545,442,o),
(545,394,c),
(545,345,o),
(584,306,o),
(632,306,c)
);
}
);
width = 654;
}
);
unicode = (73,105);
},
{
glyphname = J;
lastChange = "2023-01-20 17:18:52 +0000";
layers = (
{
layerId = m01;
shapes = (
{
closed = 1;
nodes = (
(632,0,l),
(632,700,l),
(24,700,l),
(24,569,l),
(24,520,o),
(22,481,o),
(22,481,c),
(22,0,l)
);
}
);
width = 654;
},
{
layerId = "8858DC02-546C-4175-AC98-5F30292A292C";
shapes = (
{
closed = 1;
nodes = (
(632,0,l),
(632,700,l),
(109,700,l),
(109,569,l),
(109,520,o),
(70,481,o),
(22,481,c),
(22,0,l)
);
}
);
width = 654;
}
);
unicode = (74,106);
},
{
glyphname = K;
lastChange = "2023-01-20 17:18:52 +0000";
layers = (
{
layerId = m01;
shapes = (
{
closed = 1;
nodes = (
(632,345,o),
(632,306,o),
(632,306,c),
(632,0,l),
(414,0,l),
(414,0,o),
(375,0,o),
(327,0,c),
(279,0,o),
(240,0,o),
(240,0,c),
(22,0,l),
(22,700,l),
(240,700,l),
(240,700,o),
(279,700,o),
(327,700,c),
(375,700,o),
(414,700,o),
(414,700,c),
(632,700,l),
(632,481,l),
(632,481,o),
(632,442,o),
(632,394,c)
);
}
);
width = 654;
},
{
layerId = "8858DC02-546C-4175-AC98-5F30292A292C";
shapes = (
{
closed = 1;
nodes = (
(545,345,o),
(584,306,o),
(632,306,c),
(632,0,l),
(414,0,l),
(414,48,o),
(375,88,o),
(327,88,c),
(279,88,o),
(240,48,o),
(240,0,c),
(22,0,l),
(22,700,l),
(240,700,l),
(240,652,o),
(279,613,o),
(327,613,c),
(375,613,o),
(414,652,o),
(414,700,c),
(632,700,l),
(632,481,l),
(584,481,o),
(545,442,o),
(545,394,c)
);
}
);
width = 654;
}
);
unicode = (75,107);
},
{
glyphname = L;
lastChange = "2023-01-20 17:18:52 +0000";
layers = (
{
layerId = m01;
shapes = (
{
closed = 1;
nodes = (
(22,0,l),
(22,700,l),
(632,700,l),
(632,569,l),
(632,520,o),
(632,481,o),
(632,481,c),
(632,0,l)
);
}
);
width = 654;
},
{
layerId = "8858DC02-546C-4175-AC98-5F30292A292C";
shapes = (
{
closed = 1;
nodes = (
(22,0,l),
(22,700,l),
(545,700,l),
(545,569,l),
(545,520,o),
(584,481,o),
(632,481,c),
(632,0,l)
);
}
);
width = 654;
}
);
unicode = (76,108);
},
{
glyphname = M;
lastChange = "2023-01-20 17:18:52 +0000";
layers = (
{
layerId = m01;
shapes = (
{
closed = 1;
nodes = (
(109,0,l),
(109,0,o),
(148,1,o),
(196,1,c),
(244,1,o),
(283,0,o),
(283,0,c),
(371,0,l),
(371,0,o),
(410,1,o),
(458,1,c),
(506,1,o),
(545,0,o),
(545,0,c),
(632,0,l),
(632,700,l),
(22,700,l),
(22,0,l)
);
}
);
width = 654;
},
{
layerId = "8858DC02-546C-4175-AC98-5F30292A292C";
shapes = (
{
closed = 1;
nodes = (
(109,0,l),
(109,48,o),
(148,88,o),
(196,88,c),
(244,88,o),
(283,48,o),
(283,0,c),
(371,0,l),
(371,48,o),
(410,88,o),
(458,88,c),
(506,88,o),
(545,48,o),
(545,0,c),
(632,0,l),
(632,700,l),
(22,700,l),
(22,0,l)
);
}
);
width = 654;
}
);
unicode = (77,109);
},
{
glyphname = N;
lastChange = "2023-01-20 17:18:52 +0000";
layers = (
{
layerId = m01;
shapes = (
{
closed = 1;
nodes = (
(410,700,o),
(371,700,o),
(371,700,c),
(22,700,l),
(22,0,l),
(109,0,l),
(109,0,o),
(148,-1,o),
(196,-1,c),
(244,-1,o),
(283,0,o),
(283,0,c),
(632,0,l),
(632,700,l),
(545,700,l),
(545,700,o),
(506,700,o),
(458,700,c)
);
}
);
width = 654;
},
{
layerId = "8858DC02-546C-4175-AC98-5F30292A292C";
shapes = (
{
closed = 1;
nodes = (
(410,613,o),
(371,652,o),
(371,700,c),
(22,700,l),
(22,0,l),
(109,0,l),
(109,48,o),
(148,88,o),
(196,88,c),
(244,88,o),
(283,48,o),
(283,0,c),
(632,0,l),
(632,700,l),
(545,700,l),
(545,652,o),
(506,613,o),
(458,613,c)
);
}
);
width = 654;
}
);
unicode = (78,110);
},
{
glyphname = O;
lastChange = "2023-01-20 17:18:52 +0000";
layers = (
{
layerId = m01;
shapes = (
{
closed = 1;
nodes = (
(279,394,o),
(327,345,o),
(327,394,c),
(327,442,o),
(279,394,o),
(327,394,c),
(375,394,o),
(327,442,o),
(327,394,c),
(327,345,o),
(375,394,o),
(327,394,c)
);
},
{
closed = 1;
nodes = (
(22,0,l),
(632,0,l),
(632,700,l),
(22,700,l)
);
}
);
width = 654;
},
{
layerId = "8858DC02-546C-4175-AC98-5F30292A292C";
shapes = (
{
closed = 1;
nodes = (
(279,306,o),
(240,345,o),
(240,394,c),
(240,442,o),
(279,481,o),
(327,481,c),
(375,481,o),
(414,442,o),
(414,394,c),
(414,345,o),
(375,306,o),
(327,306,c)
);
},
{
closed = 1;
nodes = (
(22,0,l),
(632,0,l),
(632,700,l),
(22,700,l)
);
}
);
width = 654;
}
);
unicode = (79,111);
},
{
glyphname = P;
lastChange = "2023-01-20 17:18:52 +0000";
layers = (
{
layerId = m01;
shapes = (
{
closed = 1;
nodes = (
(279,394,o),
(327,345,o),
(327,394,c),
(327,442,o),
(279,394,o),
(327,394,c),
(375,394,o),
(327,442,o),
(327,394,c),
(327,345,o),
(375,394,o),
(327,394,c)
);
},
{
closed = 1;
nodes = (
(22,700,l),
(22,0,l),
(632,0,l),
(632,131,l),
(632,180,o),
(632,219,o),
(632,219,c),
(632,700,l)
);
}
);
width = 654;
},
{
layerId = "8858DC02-546C-4175-AC98-5F30292A292C";
shapes = (
{
closed = 1;
nodes = (
(279,306,o),
(240,345,o),
(240,394,c),
(240,442,o),
(279,481,o),
(327,481,c),
(375,481,o),
(414,442,o),
(414,394,c),
(414,345,o),
(375,306,o),
(327,306,c)
);
},
{
closed = 1;
nodes = (
(22,700,l),
(22,0,l),
(545,0,l),
(545,131,l),
(545,180,o),
(584,219,o),
(632,219,c),
(632,700,l)
);
}
);
width = 654;
}
);
unicode = (80,112);
},
{
glyphname = Q;
lastChange = "2023-01-20 17:18:52 +0000";
layers = (
{
layerId = m01;
shapes = (
{
closed = 1;
nodes = (
(279,394,o),
(327,345,o),
(327,394,c),
(327,442,o),
(279,394,o),
(327,394,c),
(375,394,o),
(327,442,o),
(327,394,c),
(327,345,o),
(375,394,o),
(327,394,c)
);
},
{
closed = 1;
nodes = (
(22,700,l),
(22,0,l),
(371,0,l),
(371,0,o),
(410,0,o),
(458,0,c),
(506,0,o),
(545,0,o),
(545,0,c),
(632,0,l),
(632,700,l)
);
}
);
width = 654;
},
{
layerId = "8858DC02-546C-4175-AC98-5F30292A292C";
shapes = (
{
closed = 1;
nodes = (
(279,306,o),
(240,345,o),
(240,394,c),
(240,442,o),
(279,481,o),
(327,481,c),
(375,481,o),
(414,442,o),
(414,394,c),
(414,345,o),
(375,306,o),
(327,306,c)
);
},
{
closed = 1;
nodes = (
(22,700,l),
(22,0,l),
(371,0,l),
(371,48,o),
(410,88,o),
(458,88,c),
(506,88,o),
(545,48,o),
(545,0,c),
(632,0,l),
(632,700,l)
);
}
);
width = 654;
}
);
unicode = (81,113);
},
{
glyphname = R;
lastChange = "2023-01-20 17:18:52 +0000";
layers = (
{
layerId = m01;
shapes = (
{
closed = 1;
nodes = (
(279,394,o),
(327,345,o),
(327,394,c),
(327,442,o),
(279,394,o),
(327,394,c),
(375,394,o),
(327,442,o),
(327,394,c),
(327,345,o),
(375,394,o),
(327,394,c)
);
},
{
closed = 1;
nodes = (
(632,700,l),
(22,700,l),
(22,0,l),
(240,0,l),
(240,0,o),
(279,0,o),
(327,0,c),
(375,0,o),
(414,0,o),
(414,0,c),
(632,0,l),
(632,306,l),
(632,306,o),
(632,345,o),
(632,394,c),
(632,442,o),
(632,481,o),
(632,481,c)
);
}
);
width = 654;
},
{
layerId = "8858DC02-546C-4175-AC98-5F30292A292C";
shapes = (
{
closed = 1;
nodes = (
(279,306,o),
(240,345,o),
(240,394,c),
(240,442,o),
(279,481,o),
(327,481,c),
(375,481,o),
(414,442,o),
(414,394,c),
(414,345,o),
(375,306,o),
(327,306,c)
);
},
{
closed = 1;
nodes = (
(632,700,l),
(22,700,l),
(22,0,l),
(240,0,l),
(240,48,o),
(279,88,o),
(327,88,c),
(375,88,o),
(414,48,o),
(414,0,c),
(632,0,l),
(632,306,l),
(584,306,o),
(545,345,o),
(545,394,c),
(545,442,o),
(584,481,o),
(632,481,c)
);
}
);
width = 654;
}
);
unicode = (82,114);
},
{
glyphname = S;
lastChange = "2023-01-20 17:18:52 +0000";
layers = (
{
layerId = m01;
shapes = (
{
closed = 1;
nodes = (
(632,345,o),
(632,306,o),
(632,306,c),
(632,0,l),
(22,0,l),
(22,88,l),
(22,88,o),
(22,127,o),
(22,175,c),
(22,223,o),
(22,263,o),
(22,263,c),
(22,700,l),
(632,700,l),
(632,481,l),
(632,481,o),
(632,442,o),
(632,394,c)
);
}
);
width = 654;
},
{
layerId = "8858DC02-546C-4175-AC98-5F30292A292C";
shapes = (
{
closed = 1;
nodes = (
(545,345,o),
(584,306,o),
(632,306,c),
(632,0,l),
(22,0,l),
(22,88,l),
(70,88,o),
(109,127,o),
(109,175,c),
(109,223,o),
(70,263,o),
(22,263,c),
(22,700,l),
(632,700,l),
(632,481,l),
(584,481,o),
(545,442,o),
(545,394,c)
);
}
);
width = 654;
}
);
unicode = (83,115);
},
{
glyphname = T;
lastChange = "2023-01-20 17:18:52 +0000";
layers = (
{
layerId = m01;
shapes = (
{
closed = 1;
nodes = (
(632,700,l),
(632,219,l),
(632,219,o),
(632,180,o),
(632,131,c),
(632,0,l),
(22,0,l),
(22,131,l),
(22,180,o),
(22,219,o),
(22,219,c),
(22,700,l)
);
}
);
width = 654;
},
{
layerId = "8858DC02-546C-4175-AC98-5F30292A292C";
shapes = (
{
closed = 1;
nodes = (
(632,700,l),
(632,219,l),
(584,219,o),
(545,180,o),
(545,131,c),
(545,0,l),
(109,0,l),
(109,131,l),
(109,180,o),
(70,219,o),
(22,219,c),
(22,700,l)
);
}
);
width = 654;
}
);
unicode = (84,116);
},
{
glyphname = U;
lastChange = "2023-01-20 17:18:52 +0000";
layers = (
{
layerId = m01;
shapes = (
{
closed = 1;
nodes = (
(375,700,o),
(414,700,o),
(414,700,c),
(632,700,l),
(632,0,l),
(22,0,l),
(22,700,l),
(240,700,l),
(240,700,o),
(279,700,o),
(327,700,c)
);
}
);
width = 654;
},
{
layerId = "8858DC02-546C-4175-AC98-5F30292A292C";
shapes = (
{
closed = 1;
nodes = (
(375,613,o),
(414,652,o),
(414,700,c),
(632,700,l),
(632,0,l),
(22,0,l),
(22,700,l),
(240,700,l),
(240,652,o),
(279,613,o),
(327,613,c)
);
}
);
width = 654;
}
);
unicode = (85,117);
},
{
glyphname = V;
lastChange = "2023-03-10 16:45:38 +0000";
layers = (
{
layerId = m01;
shapes = (
{
closed = 1;
nodes = (
(632,700,l),
(632,0,l),
(584,0,o),
(632,48,o),
(632,0,c),
(22,0,l),
(22,48,o),
(70,0,o),
(22,0,c),
(22,700,l),
(240,700,l),
(240,700,o),
(279,700,o),
(327,700,c),
(375,700,o),
(414,700,o),
(414,700,c)
);
}
);
width = 654;
},
{
layerId = "8858DC02-546C-4175-AC98-5F30292A292C";
shapes = (
{
closed = 1;
nodes = (
(632,700,l),
(632,88,l),
(584,88,o),
(545,48,o),
(545,0,c),
(109,0,l),
(109,48,o),
(70,88,o),
(22,88,c),
(22,700,l),
(240,700,l),
(240,652,o),
(279,613,o),
(327,613,c),
(375,613,o),
(414,652,o),
(414,700,c)
);
}
);
width = 654;
}
);
unicode = (86,118);
},
{
glyphname = W;
lastChange = "2023-03-10 16:45:37 +0000";
layers = (
{
layerId = m01;
shapes = (
{
closed = 1;
nodes = (
(244,699,o),
(283,700,o),
(283,700,c),
(371,700,l),
(371,700,o),
(410,699,o),
(458,699,c),
(506,699,o),
(545,700,o),
(545,700,c),
(632,700,l),
(632,0,l),
(22,0,l),
(22,700,l),
(109,700,l),
(109,700,o),
(148,699,o),
(196,699,c)
);
}
);
width = 654;
},
{
layerId = "8858DC02-546C-4175-AC98-5F30292A292C";
shapes = (
{
closed = 1;
nodes = (
(244,613,o),
(283,652,o),
(283,700,c),
(371,700,l),
(371,652,o),
(410,613,o),
(458,613,c),
(506,613,o),
(545,652,o),
(545,700,c),
(632,700,l),
(632,0,l),
(22,0,l),
(22,700,l),
(109,700,l),
(109,652,o),
(148,613,o),
(196,613,c)
);
}
);
width = 654;
}
);
unicode = (87,119);
},
{
glyphname = X;
lastChange = "2023-03-10 16:45:36 +0000";
layers = (
{
layerId = m01;
shapes = (
{
closed = 1;
nodes = (
(240,0,l),
(240,0,o),
(279,0,o),
(327,0,c),
(375,0,o),
(414,0,o),
(414,0,c),
(632,0,l),
(632,306,l),
(632,306,o),
(632,345,o),
(632,394,c),
(632,442,o),
(632,481,o),
(632,481,c),
(632,700,l),
(414,700,l),
(414,700,o),
(375,700,o),
(327,700,c),
(279,700,o),
(240,700,o),
(240,700,c),
(22,700,l),
(22,481,l),
(22,481,o),
(22,442,o),
(22,394,c),
(22,345,o),
(22,306,o),
(22,306,c),
(22,0,l)
);
}
);
width = 654;
},
{
layerId = "8858DC02-546C-4175-AC98-5F30292A292C";
shapes = (
{
closed = 1;
nodes = (
(240,0,l),
(240,48,o),
(279,88,o),
(327,88,c),
(375,88,o),
(414,48,o),
(414,0,c),
(632,0,l),
(632,306,l),
(584,306,o),
(545,345,o),
(545,394,c),
(545,442,o),
(584,481,o),
(632,481,c),
(632,700,l),
(414,700,l),
(414,652,o),
(375,613,o),
(327,613,c),
(279,613,o),
(240,652,o),
(240,700,c),
(22,700,l),
(22,481,l),
(70,481,o),
(109,442,o),
(109,394,c),
(109,345,o),
(70,306,o),
(22,306,c),
(22,0,l)
);
}
);
width = 654;
}
);
unicode = (88,120);
},
{
glyphname = Y;
lastChange = "2023-03-10 16:45:15 +0000";
layers = (
{
layerId = m01;
shapes = (
{
closed = 1;
nodes = (
(632,700,l),
(632,219,l),
(632,219,o),
(632,180,o),
(632,131,c),
(632,0,l),
(22,0,l),
(22,131,l),
(22,180,o),
(22,219,o),
(22,219,c),
(22,700,l),
(240,700,l),
(240,700,o),
(279,700,o),
(327,700,c),
(375,700,o),
(414,700,o),
(414,700,c)
);
}
);
width = 654;
},
{
layerId = "8858DC02-546C-4175-AC98-5F30292A292C";
shapes = (
{
closed = 1;
nodes = (
(632,700,l),
(632,219,l),
(584,219,o),
(545,180,o),
(545,131,c),
(545,0,l),
(109,0,l),
(109,131,l),
(109,180,o),
(70,219,o),
(22,219,c),
(22,700,l),
(240,700,l),
(240,652,o),
(279,613,o),
(327,613,c),
(375,613,o),
(414,652,o),
(414,700,c)
);
}
);
width = 654;
}
);
unicode = (89,121);
},
{
glyphname = Z;
lastChange = "2023-03-10 16:45:14 +0000";
layers = (
{
layerId = m01;
shapes = (
{
closed = 1;
nodes = (
(22,345,o),
(22,306,o),
(22,306,c),
(22,0,l),
(632,0,l),
(632,88,l),
(632,88,o),
(632,127,o),
(632,175,c),
(632,223,o),
(632,263,o),
(632,263,c),
(632,700,l),
(22,700,l),
(22,481,l),
(22,481,o),
(22,442,o),
(22,394,c)
);
}
);
width = 654;
},
{
layerId = "8858DC02-546C-4175-AC98-5F30292A292C";
shapes = (
{
closed = 1;
nodes = (
(109,345,o),
(70,306,o),
(22,306,c),
(22,0,l),
(632,0,l),
(632,88,l),
(584,88,o),
(545,127,o),
(545,175,c),
(545,223,o),
(584,263,o),
(632,263,c),
(632,700,l),
(22,700,l),
(22,481,l),
(70,481,o),
(109,442,o),
(109,394,c)
);
}
);
width = 654;
}
);
unicode = (90,122);
},
{
glyphname = zero;
lastChange = "2023-03-10 16:46:19 +0000";
layers = (
{
layerId = "8858DC02-546C-4175-AC98-5F30292A292C";
shapes = (
{
closed = 1;
nodes = (
(279,306,o),
(240,345,o),
(240,394,c),
(240,442,o),
(279,481,o),
(327,481,c),
(375,481,o),
(414,442,o),
(414,394,c),
(414,345,o),
(375,306,o),
(327,306,c)
);
},
{
closed = 1;
nodes = (
(22,0,l),
(632,0,l),
(632,700,l),
(22,700,l)
);
}
);
width = 654;
},
{
layerId = m01;
shapes = (
{
closed = 1;
nodes = (
(279,394,o),
(327,345,o),
(327,394,c),
(327,442,o),
(279,394,o),
(327,394,c),
(375,394,o),
(327,442,o),
(327,394,c),
(327,345,o),
(375,394,o),
(327,394,c)
);
},
{
closed = 1;
nodes = (
(22,0,l),
(632,0,l),
(632,700,l),
(22,700,l)
);
}
);
width = 654;
}
);
unicode = 48;
},
{
glyphname = one;
lastChange = "2023-03-10 16:46:44 +0000";
layers = (
{
layerId = "8858DC02-546C-4175-AC98-5F30292A292C";
shapes = (
{
closed = 1;
nodes = (
(632,0,l),
(22,0,l),
(22,306,l),
(70,306,o),
(109,345,o),
(109,394,c),
(109,442,o),
(70,481,o),
(22,481,c),
(22,700,l),
(632,700,l)
);
}
);
width = 654;
},
{
layerId = m01;
shapes = (
{
closed = 1;
nodes = (
(632,0,l),
(22,0,l),
(22,306,l),
(22,306,o),
(22,345,o),
(22,394,c),
(22,442,o),
(22,481,o),
(22,481,c),
(22,700,l),
(632,700,l)
);
}
);
width = 654;
}
);
unicode = 49;
},
{
glyphname = two;
lastChange = "2023-03-10 16:45:13 +0000";
layers = (
{
layerId = "8858DC02-546C-4175-AC98-5F30292A292C";
shapes = (
{
closed = 1;
nodes = (
(109,345,o),
(70,306,o),
(22,306,c),
(22,0,l),
(632,0,l),
(632,88,l),
(584,88,o),
(545,127,o),
(545,175,c),
(545,223,o),
(584,263,o),
(632,263,c),
(632,700,l),
(22,700,l),
(22,481,l),
(70,481,o),
(109,442,o),
(109,394,c)
);
}
);
width = 654;
},
{
layerId = m01;
shapes = (
{
closed = 1;
nodes = (
(22,345,o),
(22,306,o),
(22,306,c),
(22,0,l),
(632,0,l),
(632,88,l),
(632,88,o),
(632,127,o),
(632,175,c),
(632,223,o),
(632,263,o),
(632,263,c),
(632,700,l),
(22,700,l),
(22,481,l),
(22,481,o),
(22,442,o),
(22,394,c)
);
}
);
width = 654;
}
);
unicode = 50;
},
{
glyphname = three;
lastChange = "2023-03-10 16:48:14 +0000";
layers = (
{
layerId = "8858DC02-546C-4175-AC98-5F30292A292C";
shapes = (
{
closed = 1;
nodes = (
(545,345,o),
(584,306,o),
(632,306,c),
(632,263,l),
(584,263,o),
(545,223,o),
(545,175,c),
(545,127,o),
(584,88,o),
(632,88,c),
(632,0,l),
(22,0,l),
(22,700,l),
(632,700,l),
(632,481,l),
(584,481,o),
(545,442,o),
(545,394,c)
);
}
);
width = 654;
},
{
layerId = m01;
shapes = (
{
closed = 1;
nodes = (
(632,345,o),
(632,306,o),
(632,306,c),
(632,263,l),
(632,263,o),
(632,223,o),
(632,175,c),
(632,127,o),
(632,88,o),
(632,88,c),
(632,0,l),
(22,0,l),
(22,700,l),
(632,700,l),
(632,481,l),
(632,481,o),
(632,442,o),
(632,394,c)
);
}
);
width = 654;
}
);
unicode = 51;
},
{
glyphname = four;
lastChange = "2023-03-10 16:48:49 +0000";
layers = (
{
layerId = "8858DC02-546C-4175-AC98-5F30292A292C";
shapes = (
{
closed = 1;
nodes = (
(632,700,l),
(632,0,l),
(109,0,l),
(109,131,l),
(109,180,o),
(70,219,o),
(22,219,c),
(22,700,l),
(240,700,l),
(240,652,o),
(279,613,o),
(327,613,c),
(375,613,o),
(414,652,o),
(414,700,c)
);
}
);
width = 654;
},
{
layerId = m01;
shapes = (
{
closed = 1;
nodes = (
(632,700,l),
(632,0,l),
(22,0,l),
(22,131,l),
(22,180,o),
(22,219,o),
(22,219,c),
(22,700,l),
(240,700,l),
(240,700,o),
(279,700,o),
(327,700,c),
(375,700,o),
(414,700,o),
(414,700,c)
);
}
);
width = 654;
}
);
unicode = 52;
},
{
glyphname = five;
lastChange = "2023-03-10 16:57:10 +0000";
layers = (
{
layerId = "8858DC02-546C-4175-AC98-5F30292A292C";
shapes = (
{
closed = 1;
nodes = (
(545,442,o),
(584,481,o),
(632,481,c),
(632,700,l),
(22,700,l),
(22,263,l),
(70,263,o),
(109,223,o),
(109,175,c),
(109,127,o),
(70,88,o),
(22,88,c),
(22,0,l),
(632,0,l),
(632,306,l),
(584,306,o),
(545,345,o),
(545,394,c)
);
}
);
width = 654;
},
{
layerId = m01;
shapes = (
{
closed = 1;
nodes = (
(632,442,o),
(632,481,o),
(632,481,c),
(632,700,l),
(22,700,l),
(22,263,l),
(22,263,o),
(22,223,o),
(22,175,c),
(22,127,o),
(22,88,o),
(22,88,c),
(22,0,l),
(632,0,l),
(632,306,l),
(632,306,o),
(632,345,o),
(632,394,c)
);
}
);
width = 654;
}
);
unicode = 53;
},
{
glyphname = six;
lastChange = "2023-03-10 16:57:24 +0000";
layers = (
{
layerId = "8858DC02-546C-4175-AC98-5F30292A292C";
shapes = (
{
closed = 1;
nodes = (
(279,175,o),
(240,214,o),
(240,262,c),
(240,311,o),
(279,350,o),
(327,350,c),
(375,350,o),
(414,311,o),
(414,262,c),
(414,214,o),
(375,175,o),
(327,175,c)
);
},
{
closed = 1;
nodes = (
(632,700,l),
(22,700,l),
(22,0,l),
(632,0,l),
(632,306,l),
(584,306,o),
(545,345,o),
(545,394,c),
(545,442,o),
(584,481,o),
(632,481,c)
);
}
);
width = 654;
},
{
layerId = m01;
shapes = (
{
closed = 1;
nodes = (
(279,262,o),
(327,214,o),
(327,262,c),
(327,311,o),
(279,262,o),
(327,262,c),
(375,262,o),
(327,311,o),
(327,262,c),
(327,214,o),
(375,262,o),
(327,262,c)
);
},
{
closed = 1;
nodes = (
(632,700,l),
(22,700,l),
(22,0,l),
(632,0,l),
(632,306,l),
(632,306,o),
(632,345,o),
(632,394,c),
(632,442,o),
(632,481,o),
(632,481,c)
);
}
);
width = 654;
}
);
unicode = 54;
},
{
glyphname = seven;
lastChange = "2023-03-10 16:55:48 +0000";
layers = (
{
layerId = "8858DC02-546C-4175-AC98-5F30292A292C";
shapes = (
{
closed = 1;
nodes = (
(632,700,l),
(632,0,l),
(109,0,l),
(109,131,l),
(109,180,o),
(70,219,o),
(22,219,c),
(22,700,l)
);
}
);
width = 654;
},
{
layerId = m01;
shapes = (
{
closed = 1;
nodes = (
(632,700,l),
(632,0,l),
(22,0,l),
(22,131,l),
(22,180,o),
(22,219,o),
(22,219,c),
(22,700,l)
);
}
);
width = 654;
}
);
unicode = 55;
},
{
glyphname = eight;
lastChange = "2023-03-10 16:53:15 +0000";
layers = (
{
layerId = "8858DC02-546C-4175-AC98-5F30292A292C";
shapes = (
{
closed = 1;
nodes = (
(279,394,o),
(240,433,o),
(240,481,c),
(240,530,o),
(279,569,o),
(327,569,c),
(375,569,o),
(414,530,o),
(414,481,c),
(414,433,o),
(375,394,o),
(327,394,c)
);
},
{
closed = 1;
nodes = (
(279,175,o),
(240,214,o),
(240,263,c),
(240,311,o),
(279,350,o),
(327,350,c),
(375,350,o),
(414,311,o),
(414,263,c),
(414,214,o),
(375,175,o),
(327,175,c)
);
},
{
closed = 1;
nodes = (
(632,700,l),
(22,700,l),
(22,0,l),
(632,0,l)
);
}
);
width = 654;
},
{
layerId = m01;
shapes = (
{
closed = 1;
nodes = (
(279,481,o),
(327,433,o),
(327,481,c),
(327,530,o),
(279,481,o),
(327,481,c),
(375,481,o),
(327,530,o),
(327,481,c),
(327,433,o),
(375,481,o),
(327,481,c)
);
},
{
closed = 1;
nodes = (
(279,263,o),
(327,214,o),
(327,263,c),
(327,311,o),
(279,263,o),
(327,263,c),
(375,263,o),
(327,311,o),
(327,263,c),
(327,214,o),
(375,263,o),
(327,263,c)
);
},
{
closed = 1;
nodes = (
(632,700,l),
(22,700,l),
(22,0,l),
(632,0,l)
);
}
);
width = 654;
}
);
unicode = 56;
},
{
glyphname = nine;
lastChange = "2023-03-10 16:57:32 +0000";
layers = (
{
layerId = "8858DC02-546C-4175-AC98-5F30292A292C";
shapes = (
{
closed = 1;
nodes = (
(279,394,o),
(240,433,o),
(240,481,c),
(240,530,o),
(279,569,o),
(327,569,c),
(375,569,o),
(414,530,o),
(414,481,c),
(414,433,o),
(375,394,o),
(327,394,c)
);
},
{
closed = 1;
nodes = (
(70,266,o),
(109,227,o),
(109,179,c),
(109,130,o),
(70,91,o),
(22,91,c),
(22,0,l),
(632,0,l),
(632,700,l),
(22,700,l),
(22,266,l)
);
}
);
width = 654;
},
{
layerId = m01;
shapes = (
{
closed = 1;
nodes = (
(279,481,o),
(327,433,o),
(327,481,c),
(327,530,o),
(279,481,o),
(327,481,c),
(375,481,o),
(327,530,o),
(327,481,c),
(327,433,o),
(375,481,o),
(327,481,c)
);
},
{
closed = 1;
nodes = (
(22,266,o),
(22,227,o),
(22,179,c),
(22,130,o),
(22,91,o),
(22,91,c),
(22,0,l),
(632,0,l),
(632,700,l),
(22,700,l),
(22,266,l)
);
}
);
width = 654;
}
);
unicode = 57;
},
